<mxfile host="app.diagrams.net" modified="2024-06-08T02:46:33.073Z" agent="Mozilla/5.0 (X11; Linux x86_64) AppleWebKit/537.36 (KHTML, like Gecko) Chrome/121.0.0.0 Safari/537.36" etag="Mor7vZXk4jm9O8gKa8Jt" version="24.5.2" type="device">
  <diagram name="Page-1" id="EDObBCEe3gl5GURuQ94F">
    <mxGraphModel dx="1364" dy="759" grid="1" gridSize="10" guides="1" tooltips="1" connect="1" arrows="1" fold="1" page="1" pageScale="1" pageWidth="850" pageHeight="1100" math="0" shadow="0">
      <root>
        <mxCell id="0" />
        <mxCell id="1" parent="0" />
        <mxCell id="V0KERmd7NiDZv7qhYxzO-1" value="" style="endArrow=none;dashed=1;html=1;rounded=0;" edge="1" parent="1">
          <mxGeometry width="50" height="50" relative="1" as="geometry">
            <mxPoint x="40" y="200" as="sourcePoint" />
            <mxPoint x="840" y="200" as="targetPoint" />
          </mxGeometry>
        </mxCell>
        <mxCell id="V0KERmd7NiDZv7qhYxzO-21" style="edgeStyle=orthogonalEdgeStyle;rounded=0;orthogonalLoop=1;jettySize=auto;html=1;exitX=0.5;exitY=1;exitDx=0;exitDy=0;entryX=0.5;entryY=0;entryDx=0;entryDy=0;" edge="1" parent="1" source="V0KERmd7NiDZv7qhYxzO-2" target="V0KERmd7NiDZv7qhYxzO-4">
          <mxGeometry relative="1" as="geometry" />
        </mxCell>
        <mxCell id="V0KERmd7NiDZv7qhYxzO-2" value="Svelte Directory" style="text;strokeColor=#b85450;align=center;fillColor=#f8cecc;html=1;verticalAlign=middle;whiteSpace=wrap;rounded=0;" vertex="1" parent="1">
          <mxGeometry x="165" y="150" width="145" height="30" as="geometry" />
        </mxCell>
        <mxCell id="V0KERmd7NiDZv7qhYxzO-24" style="edgeStyle=orthogonalEdgeStyle;rounded=0;orthogonalLoop=1;jettySize=auto;html=1;exitX=0.5;exitY=1;exitDx=0;exitDy=0;entryX=0.5;entryY=0;entryDx=0;entryDy=0;" edge="1" parent="1" source="V0KERmd7NiDZv7qhYxzO-4" target="V0KERmd7NiDZv7qhYxzO-10">
          <mxGeometry relative="1" as="geometry" />
        </mxCell>
        <mxCell id="V0KERmd7NiDZv7qhYxzO-4" value="Visual Directory Component Manager" style="text;html=1;align=center;verticalAlign=middle;whiteSpace=wrap;rounded=0;fillColor=#e1d5e7;strokeColor=#9673a6;" vertex="1" parent="1">
          <mxGeometry x="167.5" y="280" width="140" height="30" as="geometry" />
        </mxCell>
        <mxCell id="V0KERmd7NiDZv7qhYxzO-23" style="edgeStyle=orthogonalEdgeStyle;rounded=0;orthogonalLoop=1;jettySize=auto;html=1;exitX=0.5;exitY=1;exitDx=0;exitDy=0;entryX=0.5;entryY=0;entryDx=0;entryDy=0;" edge="1" parent="1" source="V0KERmd7NiDZv7qhYxzO-5" target="V0KERmd7NiDZv7qhYxzO-9">
          <mxGeometry relative="1" as="geometry" />
        </mxCell>
        <mxCell id="V0KERmd7NiDZv7qhYxzO-5" value="Visual Snippet Component Manager" style="text;html=1;align=center;verticalAlign=middle;whiteSpace=wrap;rounded=0;fillColor=#e1d5e7;strokeColor=#9673a6;" vertex="1" parent="1">
          <mxGeometry x="655" y="250" width="140" height="30" as="geometry" />
        </mxCell>
        <mxCell id="V0KERmd7NiDZv7qhYxzO-22" style="edgeStyle=orthogonalEdgeStyle;rounded=0;orthogonalLoop=1;jettySize=auto;html=1;exitX=0.5;exitY=1;exitDx=0;exitDy=0;entryX=0.5;entryY=0;entryDx=0;entryDy=0;" edge="1" parent="1" source="V0KERmd7NiDZv7qhYxzO-6" target="V0KERmd7NiDZv7qhYxzO-5">
          <mxGeometry relative="1" as="geometry" />
        </mxCell>
        <mxCell id="V0KERmd7NiDZv7qhYxzO-6" value="Svelte Snippet Builder Workspace" style="text;html=1;align=center;verticalAlign=middle;whiteSpace=wrap;rounded=0;fillColor=#f8cecc;strokeColor=#b85450;" vertex="1" parent="1">
          <mxGeometry x="630" y="140" width="190" height="30" as="geometry" />
        </mxCell>
        <mxCell id="V0KERmd7NiDZv7qhYxzO-26" style="edgeStyle=orthogonalEdgeStyle;rounded=0;orthogonalLoop=1;jettySize=auto;html=1;exitX=0.5;exitY=1;exitDx=0;exitDy=0;entryX=0.5;entryY=0;entryDx=0;entryDy=0;" edge="1" parent="1" source="V0KERmd7NiDZv7qhYxzO-9" target="V0KERmd7NiDZv7qhYxzO-16">
          <mxGeometry relative="1" as="geometry" />
        </mxCell>
        <mxCell id="V0KERmd7NiDZv7qhYxzO-9" value="Front Snippet Manager" style="text;html=1;align=center;verticalAlign=middle;whiteSpace=wrap;rounded=0;fillColor=#fff2cc;strokeColor=#d6b656;" vertex="1" parent="1">
          <mxGeometry x="655" y="400" width="140" height="30" as="geometry" />
        </mxCell>
        <mxCell id="V0KERmd7NiDZv7qhYxzO-25" style="edgeStyle=orthogonalEdgeStyle;rounded=0;orthogonalLoop=1;jettySize=auto;html=1;exitX=0.5;exitY=1;exitDx=0;exitDy=0;entryX=0.5;entryY=0;entryDx=0;entryDy=0;" edge="1" parent="1" source="V0KERmd7NiDZv7qhYxzO-10" target="V0KERmd7NiDZv7qhYxzO-15">
          <mxGeometry relative="1" as="geometry" />
        </mxCell>
        <mxCell id="V0KERmd7NiDZv7qhYxzO-29" style="edgeStyle=orthogonalEdgeStyle;rounded=0;orthogonalLoop=1;jettySize=auto;html=1;exitX=1;exitY=0.5;exitDx=0;exitDy=0;entryX=0.5;entryY=0;entryDx=0;entryDy=0;" edge="1" parent="1" source="V0KERmd7NiDZv7qhYxzO-10" target="V0KERmd7NiDZv7qhYxzO-27">
          <mxGeometry relative="1" as="geometry" />
        </mxCell>
        <mxCell id="V0KERmd7NiDZv7qhYxzO-30" style="edgeStyle=orthogonalEdgeStyle;rounded=0;orthogonalLoop=1;jettySize=auto;html=1;exitX=0.75;exitY=1;exitDx=0;exitDy=0;entryX=0.5;entryY=1;entryDx=0;entryDy=0;" edge="1" parent="1" source="V0KERmd7NiDZv7qhYxzO-10" target="V0KERmd7NiDZv7qhYxzO-28">
          <mxGeometry relative="1" as="geometry" />
        </mxCell>
        <mxCell id="V0KERmd7NiDZv7qhYxzO-10" value="Front Directory Manager" style="text;html=1;align=center;verticalAlign=middle;whiteSpace=wrap;rounded=0;fillColor=#fff2cc;strokeColor=#d6b656;" vertex="1" parent="1">
          <mxGeometry x="172.5" y="400" width="130" height="30" as="geometry" />
        </mxCell>
        <mxCell id="V0KERmd7NiDZv7qhYxzO-15" value="Directory Manager" style="text;html=1;align=center;verticalAlign=middle;whiteSpace=wrap;rounded=0;fillColor=#d5e8d4;strokeColor=#82b366;" vertex="1" parent="1">
          <mxGeometry x="171.25" y="580" width="132.5" height="30" as="geometry" />
        </mxCell>
        <mxCell id="V0KERmd7NiDZv7qhYxzO-16" value="Snippet Manager" style="text;html=1;align=center;verticalAlign=middle;whiteSpace=wrap;rounded=0;fillColor=#d5e8d4;strokeColor=#82b366;" vertex="1" parent="1">
          <mxGeometry x="670" y="580" width="110" height="30" as="geometry" />
        </mxCell>
        <mxCell id="V0KERmd7NiDZv7qhYxzO-27" value="Front Snippet File Container" style="text;html=1;align=center;verticalAlign=middle;whiteSpace=wrap;rounded=0;fillColor=#fff2cc;strokeColor=#d6b656;" vertex="1" parent="1">
          <mxGeometry x="340" y="385" width="60" height="60" as="geometry" />
        </mxCell>
        <mxCell id="V0KERmd7NiDZv7qhYxzO-28" value="Front Snippet Category" style="text;html=1;align=center;verticalAlign=middle;whiteSpace=wrap;rounded=0;fillColor=#fff2cc;strokeColor=#d6b656;" vertex="1" parent="1">
          <mxGeometry x="420" y="390" width="60" height="50" as="geometry" />
        </mxCell>
      </root>
    </mxGraphModel>
  </diagram>
</mxfile>
